<svg width="60" height="60" viewBox="0 0 60 60" fill="none" xmlns="http://www.w3.org/2000/svg">
<circle cx="30" cy="30" r="29.5" stroke="white"/>
<path d="M11.8639 28.552C12.5146 28.552 13.0373 28.6907 13.4319 28.968C13.8266 29.2347 14.0239 29.624 14.0239 30.136C14.0239 30.5734 13.8799 31.0107 13.5919 31.448C13.3146 31.8747 12.9519 32.2907 12.5039 32.696C12.0666 33.1014 11.5973 33.4854 11.0959 33.848C10.6053 34.2 10.1413 34.5307 9.70394 34.84C9.26661 35.1387 8.91461 35.3947 8.64794 35.608C8.94661 35.608 9.29861 35.6454 9.70394 35.72C10.1199 35.7947 10.5359 35.8694 10.9519 35.944C11.3679 36.0187 11.7306 36.056 12.0399 36.056C12.4026 36.056 12.6746 35.992 12.8559 35.864C13.0479 35.736 13.1439 35.544 13.1439 35.288C13.1439 34.8934 12.9093 34.5894 12.4399 34.376L12.6479 34.168C12.9253 34.296 13.1386 34.4614 13.2879 34.664C13.4479 34.8667 13.5279 35.1227 13.5279 35.432C13.5279 35.7094 13.4586 35.976 13.3199 36.232C13.1919 36.488 12.9786 36.696 12.6799 36.856C12.3919 37.016 12.0079 37.096 11.5279 37.096C11.0266 37.096 10.5519 37.0214 10.1039 36.872C9.66661 36.7227 9.15994 36.6374 8.58394 36.616C8.18927 36.5947 7.85327 36.6214 7.57594 36.696C7.29861 36.76 6.99461 36.8614 6.66394 37L6.74394 36.664C7.06394 36.4187 7.46394 36.1254 7.94394 35.784C8.43461 35.4427 8.94661 35.0694 9.47994 34.664C10.0133 34.2587 10.5146 33.8214 10.9839 33.352C11.4533 32.8827 11.8319 32.392 12.1199 31.88C12.4186 31.368 12.5679 30.8454 12.5679 30.312C12.5679 29.8854 12.4613 29.544 12.2479 29.288C12.0453 29.032 11.7413 28.904 11.3359 28.904C10.9519 28.904 10.5466 29.032 10.1199 29.288C9.69327 29.5334 9.33061 29.8534 9.03194 30.248C8.74394 30.6427 8.59994 31.0534 8.59994 31.48C8.59994 31.736 8.66927 31.928 8.80794 32.056C8.95727 32.184 9.19727 32.248 9.52794 32.248C9.82661 32.248 10.0826 32.1947 10.2959 32.088C10.5199 31.9707 10.7546 31.8054 10.9999 31.592L11.1919 31.816C10.8933 32.0934 10.5893 32.2907 10.2799 32.408C9.97061 32.5254 9.68261 32.584 9.41594 32.584C9.14927 32.584 8.88261 32.5147 8.61594 32.376C8.34927 32.2374 8.21594 31.944 8.21594 31.496C8.21594 31.0267 8.38127 30.568 8.71194 30.12C9.04261 29.6614 9.47994 29.288 10.0239 29C10.5786 28.7014 11.1919 28.552 11.8639 28.552Z" fill="white"/>
<path d="M20.0708 28.584L17.5908 37H16.1988L18.2468 30.072C17.9481 30.2427 17.6121 30.408 17.2388 30.568C16.8655 30.7174 16.4015 30.8774 15.8468 31.048L15.8948 30.712C16.8975 30.4027 17.6815 30.0614 18.2468 29.688C18.8228 29.304 19.3241 28.936 19.7508 28.584H20.0708Z" fill="white"/>
<path d="M26.4196 35.64C26.3449 35.8854 26.3129 36.1147 26.3236 36.328C26.3449 36.5307 26.4729 36.632 26.7076 36.632C26.9209 36.632 27.1182 36.5147 27.2996 36.28C27.4809 36.0347 27.6729 35.608 27.8756 35L28.0676 34.408H28.3716L28.0036 35.576C27.8009 36.2267 27.5182 36.664 27.1556 36.888C26.8036 37.112 26.4676 37.224 26.1476 37.224C25.5076 37.224 25.1716 36.92 25.1396 36.312C25.1289 36.1414 25.1396 35.944 25.1716 35.72C25.2142 35.496 25.2729 35.2507 25.3476 34.984L27.6516 26.328C27.7476 25.9654 27.7316 25.6987 27.6036 25.528C27.4756 25.3574 27.1502 25.272 26.6276 25.272L26.7236 24.936C27.3102 24.9254 27.8276 24.8667 28.2756 24.76C28.7236 24.6427 29.1502 24.4827 29.5556 24.28L26.4196 35.64ZM22.8356 36.712C23.1022 36.712 23.4009 36.5574 23.7316 36.248C24.0729 35.928 24.4142 35.5014 24.7556 34.968C25.1076 34.424 25.4276 33.8107 25.7156 33.128C26.0142 32.4347 26.2489 31.72 26.4196 30.984L26.1796 32.712C25.7636 33.8107 25.3476 34.6907 24.9316 35.352C24.5262 36.0134 24.1102 36.4934 23.6836 36.792C23.2676 37.08 22.8302 37.224 22.3716 37.224C21.8702 37.224 21.4649 37.0534 21.1556 36.712C20.8569 36.36 20.7076 35.8267 20.7076 35.112C20.7076 34.6 20.7876 34.0507 20.9476 33.464C21.1182 32.8667 21.3582 32.28 21.6676 31.704C21.9769 31.128 22.3449 30.6054 22.7716 30.136C23.2089 29.656 23.6889 29.272 24.2116 28.984C24.7342 28.696 25.2889 28.552 25.8756 28.552C26.1209 28.552 26.3502 28.648 26.5636 28.84C26.7769 29.0214 26.8942 29.2987 26.9156 29.672L26.7876 29.992C26.7449 29.608 26.6382 29.336 26.4676 29.176C26.2969 29.0054 26.1049 28.92 25.8916 28.92C25.3796 28.92 24.8942 29.128 24.4356 29.544C23.9876 29.96 23.5876 30.4987 23.2356 31.16C22.8942 31.8214 22.6222 32.52 22.4196 33.256C22.2276 33.992 22.1316 34.68 22.1316 35.32C22.1316 35.7894 22.1902 36.1414 22.3076 36.376C22.4249 36.6 22.6009 36.712 22.8356 36.712Z" fill="white"/>
<path d="M30.1314 36.76C30.2168 36.8027 30.3074 36.84 30.4034 36.872C30.5101 36.8934 30.6648 36.904 30.8674 36.904C31.3368 36.904 31.7208 36.7654 32.0194 36.488C32.3288 36.2 32.4834 35.7894 32.4834 35.256C32.4834 34.9254 32.4194 34.6 32.2914 34.28C32.1741 33.9494 31.9608 33.5707 31.6514 33.144C31.4061 32.8027 31.1714 32.456 30.9474 32.104C30.7234 31.7414 30.6114 31.3147 30.6114 30.824C30.6114 30.1414 30.8514 29.592 31.3314 29.176C31.8221 28.76 32.4088 28.552 33.0914 28.552C33.4008 28.552 33.7048 28.5894 34.0034 28.664C34.3021 28.7387 34.5474 28.8774 34.7394 29.08C34.9421 29.272 35.0434 29.56 35.0434 29.944C35.0434 30.0934 34.9901 30.2694 34.8834 30.472C34.7768 30.6747 34.5848 30.776 34.3074 30.776C34.1368 30.776 33.9874 30.7174 33.8594 30.6C33.7314 30.472 33.6674 30.3067 33.6674 30.104C33.6674 29.912 33.7048 29.7307 33.7794 29.56C33.8648 29.3787 33.9768 29.2027 34.1154 29.032C33.9128 28.904 33.6461 28.84 33.3154 28.84C32.9208 28.84 32.5901 28.9734 32.3234 29.24C32.0568 29.5067 31.9234 29.88 31.9234 30.36C31.9234 30.7227 32.0034 31.032 32.1634 31.288C32.3341 31.5334 32.5741 31.8907 32.8834 32.36C33.1501 32.7654 33.3741 33.1547 33.5554 33.528C33.7368 33.9014 33.8274 34.296 33.8274 34.712C33.8274 35.2027 33.6994 35.64 33.4434 36.024C33.1981 36.3974 32.8674 36.6907 32.4514 36.904C32.0354 37.1174 31.5768 37.224 31.0754 37.224C30.7128 37.224 30.3661 37.1707 30.0354 37.064C29.7048 36.9574 29.4328 36.792 29.2194 36.568C29.0168 36.3334 28.9154 36.024 28.9154 35.64C28.9154 35.4907 28.9634 35.336 29.0594 35.176C29.1448 35.0054 29.3048 34.92 29.5394 34.92C29.7954 34.92 29.9768 35.0267 30.0834 35.24C30.1901 35.4427 30.2434 35.672 30.2434 35.928C30.2434 36.0987 30.2274 36.2534 30.1954 36.392C30.1741 36.52 30.1528 36.6427 30.1314 36.76Z" fill="white"/>
<path d="M38.7372 33.4L39.1372 33.416C38.5612 33.7467 38.0545 34.0294 37.6172 34.264C37.1905 34.488 36.9772 34.7067 36.9772 34.92C36.9772 35.0267 37.0519 35.128 37.2012 35.224C37.3505 35.3094 37.5959 35.3947 37.9372 35.48L39.1052 35.784C39.4465 35.8694 39.7505 35.9707 40.0172 36.088C40.2945 36.1947 40.5132 36.3334 40.6732 36.504C40.8332 36.6747 40.9132 36.8987 40.9132 37.176C40.9132 37.4427 40.8225 37.7414 40.6412 38.072C40.4705 38.4134 40.1985 38.7387 39.8252 39.048C39.4625 39.3574 38.9879 39.6134 38.4012 39.816C37.8145 40.0187 37.1052 40.12 36.2732 40.12C35.7185 40.12 35.2545 40.0667 34.8812 39.96C34.4972 39.864 34.2145 39.7254 34.0332 39.544C33.8412 39.3627 33.7452 39.1547 33.7452 38.92C33.7452 38.7494 33.7932 38.568 33.8892 38.376C33.9852 38.1947 34.1292 38.0134 34.3212 37.832C34.5025 37.6614 34.7372 37.496 35.0252 37.336C35.3025 37.1867 35.6332 37.0587 36.0172 36.952L36.1292 37.192C35.7345 37.3947 35.4625 37.624 35.3132 37.88C35.1639 38.136 35.0892 38.392 35.0892 38.648C35.0892 39.0747 35.2385 39.3787 35.5372 39.56C35.8359 39.752 36.2039 39.848 36.6412 39.848C37.1212 39.848 37.6065 39.752 38.0972 39.56C38.5879 39.368 38.9985 39.1174 39.3292 38.808C39.6599 38.4987 39.8252 38.168 39.8252 37.816C39.8252 37.656 39.7719 37.5494 39.6652 37.496C39.5692 37.4427 39.4039 37.3894 39.1692 37.336L36.7212 36.712C36.4652 36.648 36.2572 36.5414 36.0972 36.392C35.9372 36.232 35.8572 36.0187 35.8572 35.752C35.8572 35.5387 35.9319 35.32 36.0812 35.096C36.2305 34.872 36.5132 34.6267 36.9292 34.36C37.3452 34.0827 37.9479 33.7627 38.7372 33.4ZM39.5532 28.84C39.1265 28.84 38.7799 28.9894 38.5132 29.288C38.2465 29.5867 38.0439 29.944 37.9052 30.36C37.7665 30.776 37.6705 31.1707 37.6172 31.544C37.5639 31.9174 37.5372 32.184 37.5372 32.344C37.5372 32.6854 37.6119 32.9307 37.7612 33.08C37.9212 33.2294 38.1292 33.304 38.3852 33.304C38.7905 33.304 39.1159 33.1814 39.3612 32.936C39.6172 32.6907 39.8145 32.3867 39.9532 32.024C40.0919 31.6614 40.1825 31.2987 40.2252 30.936C40.2785 30.5734 40.3052 30.2694 40.3052 30.024C40.3052 29.6614 40.2572 29.3734 40.1612 29.16C40.0652 28.9467 39.8625 28.84 39.5532 28.84ZM39.6172 28.552C40.2465 28.552 40.7532 28.696 41.1372 28.984C41.5319 29.2614 41.7292 29.7147 41.7292 30.344C41.7292 30.856 41.5852 31.3627 41.2972 31.864C41.0092 32.3654 40.6039 32.7814 40.0812 33.112C39.5585 33.432 38.9399 33.592 38.2252 33.592C37.6385 33.592 37.1425 33.4534 36.7372 33.176C36.3425 32.888 36.1452 32.4454 36.1452 31.848C36.1452 31.56 36.2039 31.2294 36.3212 30.856C36.4492 30.472 36.6465 30.1094 36.9132 29.768C37.1799 29.416 37.5319 29.128 37.9692 28.904C38.4172 28.6694 38.9665 28.552 39.6172 28.552ZM40.7532 29.384L40.4652 29.272C40.6145 28.9094 40.8705 28.5894 41.2332 28.312C41.5959 28.0347 41.9745 27.896 42.3692 27.896C42.6465 27.896 42.8705 27.976 43.0412 28.136C43.2119 28.2854 43.2972 28.5254 43.2972 28.856C43.2972 29.1547 43.2225 29.3734 43.0732 29.512C42.9239 29.6507 42.7639 29.72 42.5932 29.72C42.4225 29.72 42.2572 29.6667 42.0972 29.56C41.9479 29.4427 41.8572 29.2614 41.8252 29.016C41.7932 28.7707 41.8625 28.456 42.0332 28.072L42.2412 28.12C41.7932 28.2907 41.4732 28.472 41.2812 28.664C41.0892 28.8454 40.9132 29.0854 40.7532 29.384Z" fill="white"/>
<path d="M44.4207 37H43.0287L44.9487 30.136C44.9914 30.008 45.0234 29.8694 45.0447 29.72C45.0767 29.56 45.0714 29.4267 45.0287 29.32C44.986 29.2027 44.8794 29.144 44.7087 29.144C44.474 29.144 44.266 29.2614 44.0847 29.496C43.9034 29.72 43.7007 30.1467 43.4767 30.776L43.2687 31.368H42.9647L43.3647 30.2C43.5994 29.528 43.8874 29.0854 44.2287 28.872C44.5807 28.6587 44.9274 28.552 45.2687 28.552C45.6954 28.552 45.9674 28.6694 46.0847 28.904C46.2127 29.1387 46.25 29.4267 46.1967 29.768C46.1434 30.1094 46.074 30.4507 45.9887 30.792L44.4207 37ZM45.1567 33.672C45.53 32.712 45.8927 31.9067 46.2447 31.256C46.5967 30.6054 46.9434 30.0827 47.2847 29.688C47.626 29.2827 47.9727 28.9947 48.3247 28.824C48.6874 28.6427 49.0607 28.552 49.4447 28.552C49.946 28.552 50.2874 28.6747 50.4687 28.92C50.6607 29.1547 50.746 29.4587 50.7247 29.832C50.7034 30.1947 50.6287 30.5734 50.5007 30.968L48.9487 35.64C48.8527 35.928 48.81 36.168 48.8207 36.36C48.842 36.5414 48.97 36.632 49.2047 36.632C49.4074 36.632 49.6047 36.52 49.7967 36.296C49.9994 36.072 50.2127 35.64 50.4367 35L50.6447 34.408H50.9487L50.5487 35.576C50.314 36.248 50.0154 36.6907 49.6527 36.904C49.29 37.1174 48.9434 37.224 48.6127 37.224C48.1327 37.224 47.7967 37.0694 47.6047 36.76C47.4874 36.568 47.45 36.3174 47.4927 36.008C47.5354 35.6987 47.6207 35.3574 47.7487 34.984L49.2687 30.408C49.322 30.2587 49.3647 30.0827 49.3967 29.88C49.4394 29.6667 49.434 29.48 49.3807 29.32C49.3274 29.1494 49.1727 29.064 48.9167 29.064C48.5967 29.064 48.25 29.24 47.8767 29.592C47.514 29.9334 47.1407 30.4134 46.7567 31.032C46.3727 31.6507 45.9994 32.376 45.6367 33.208C45.2847 34.04 44.97 34.9414 44.6927 35.912L45.1567 33.672Z" fill="white"/>
</svg>
